<svg width="18" height="18" viewBox="0 0 18 18" fill="none" xmlns="http://www.w3.org/2000/svg">
<path d="M15.0619 7.87487L15.9634 8.41562C16.019 8.44891 16.065 8.49606 16.097 8.55245C16.129 8.60884 16.1458 8.67255 16.1458 8.73737C16.1458 8.80219 16.129 8.8659 16.097 8.92229C16.065 8.97868 16.019 9.02582 15.9634 9.05912L8.99965 13.2374L2.0359 9.05912C1.98028 9.02582 1.93425 8.97868 1.90228 8.92229C1.87032 8.8659 1.85352 8.80219 1.85352 8.73737C1.85352 8.67255 1.87032 8.60884 1.90228 8.55245C1.93425 8.49606 1.98028 8.44891 2.0359 8.41562L2.9374 7.87487L8.99965 11.5124L15.0619 7.87487ZM15.0619 11.3999L15.9634 11.9406C16.019 11.9739 16.065 12.0211 16.097 12.0774C16.129 12.1338 16.1458 12.1975 16.1458 12.2624C16.1458 12.3272 16.129 12.3909 16.097 12.4473C16.065 12.5037 16.019 12.5508 15.9634 12.5841L9.3859 16.5306C9.26925 16.6007 9.13573 16.6377 8.99965 16.6377C8.86356 16.6377 8.73005 16.6007 8.6134 16.5306L2.0359 12.5841C1.98028 12.5508 1.93425 12.5037 1.90228 12.4473C1.87032 12.3909 1.85352 12.3272 1.85352 12.2624C1.85352 12.1975 1.87032 12.1338 1.90228 12.0774C1.93425 12.0211 1.98028 11.9739 2.0359 11.9406L2.9374 11.3999L8.99965 15.0374L15.0619 11.3999ZM9.38515 0.981619L15.9634 4.92812C16.019 4.96141 16.065 5.00856 16.097 5.06495C16.129 5.12134 16.1458 5.18505 16.1458 5.24987C16.1458 5.31469 16.129 5.3784 16.097 5.43479C16.065 5.49118 16.019 5.53832 15.9634 5.57162L8.99965 9.74987L2.0359 5.57162C1.98028 5.53832 1.93425 5.49118 1.90228 5.43479C1.87032 5.3784 1.85352 5.31469 1.85352 5.24987C1.85352 5.18505 1.87032 5.12134 1.90228 5.06495C1.93425 5.00856 1.98028 4.96141 2.0359 4.92812L8.6134 0.981619C8.73005 0.911537 8.86356 0.874512 8.99965 0.874512C9.13573 0.874512 9.26925 0.911537 9.3859 0.981619H9.38515Z" fill="white"/>
</svg>
